<svg width="74" height="74" viewBox="0 0 74 74" fill="none" xmlns="http://www.w3.org/2000/svg">
<g id="Group 172">
<path id="Vector" d="M64.75 0H9.25C4.14708 0 0 4.14699 0 9.24979V64.7485C0 69.8483 4.14708 73.9983 9.25 73.9983H64.75C69.8498 73.9983 74 69.8483 74 64.7485V9.24979C74 4.14699 69.8498 0 64.75 0Z" fill="#3B5999"/>
<path id="Vector_2" d="M50.8755 37.002V27.7524C50.8755 25.1996 52.9475 25.4401 55.5005 25.4401H60.1255V13.8782H50.8755C43.2103 13.8782 37.0005 20.0877 37.0005 27.7524V37.002H27.7505V48.5638H37.0005V74H50.8755V48.5638H57.813L62.438 37.002H50.8755Z" fill="white"/>
</g>
</svg>
