<svg width="75" height="74" viewBox="0 0 75 74" fill="none" xmlns="http://www.w3.org/2000/svg">
<g id="Group 87">
<path id="Vector" d="M37.7417 74C58.1762 74 74.7417 57.4345 74.7417 37C74.7417 16.5655 58.1762 0 37.7417 0C17.3072 0 0.741699 16.5655 0.741699 37C0.741699 57.4345 17.3072 74 37.7417 74Z" fill="#273B7A"/>
<path id="Vector_2" d="M73.9083 44.8314L51.286 22.2107L32.4257 23.716L22.7915 32.51L24.0278 51.6395L45.4476 73.1941C59.6562 70.1838 70.851 59.021 73.9083 44.8314Z" fill="#121149"/>
<path id="Vector_3" d="M38.5501 33.6039V40.6949H49.6381C48.0656 45.771 43.3354 49.4581 37.7435 49.4581C30.867 49.4581 25.2922 43.8829 25.2922 37.0051C25.292 30.1278 30.8664 24.5523 37.7429 24.5523C40.9566 24.5523 43.8762 25.7806 46.0852 27.7796L51.2879 22.2088C47.719 18.9392 42.9645 16.9426 37.7429 16.9426C26.6643 16.9426 17.6831 25.9248 17.6831 37.0054C17.6831 48.0859 26.6643 57.0681 37.743 57.0681C48.8218 57.0681 57.8028 48.0858 57.8028 37.0054C57.8028 35.8446 57.6957 34.71 57.5051 33.6039H38.5501Z" fill="#4285F4"/>
<path id="Vector_4" d="M37.7417 24.5507C40.9554 24.5507 43.875 25.7786 46.0841 27.7771L51.2868 22.2078C47.7178 18.9387 42.9633 16.9426 37.7417 16.9426C30.0589 16.9426 23.3882 21.2631 20.0186 27.6047L26.1403 32.5068C27.9444 27.8549 32.452 24.5507 37.7417 24.5507Z" fill="#EA4335"/>
<path id="Vector_5" d="M25.2921 37.0058C25.2921 35.4191 25.6002 33.9075 26.1415 32.512L20.0197 27.6094C18.5303 30.4128 17.6831 33.6099 17.6831 37.0059C17.6831 40.4176 18.5374 43.6291 20.0397 46.4418L26.1251 41.4549C25.595 40.0711 25.2921 38.5755 25.2921 37.0058Z" fill="#FBBC05"/>
<path id="Vector_6" d="M44.6657 47.3448C42.6853 48.6732 40.3076 49.4549 37.7438 49.4549C32.4368 49.4549 27.9177 46.1292 26.1255 41.4534L20.04 46.4398C23.4166 52.7603 30.0764 57.0627 37.7432 57.0627C42.7225 57.0627 47.274 55.2449 50.7809 52.2419L44.6657 47.3448Z" fill="#34A853"/>
<path id="Vector_7" d="M57.8025 37.0031C57.8025 35.843 57.6954 34.709 57.5048 33.6035H38.5498V40.6906H49.6378C48.7864 43.4379 47.0037 45.7711 44.6651 47.3397L50.7805 52.2354C55.0766 48.5576 57.8025 43.1003 57.8025 37.0031Z" fill="#4285F4"/>
</g>
</svg>
