<svg width="75" height="74" viewBox="0 0 75 74" fill="none" xmlns="http://www.w3.org/2000/svg">
<g id="Group 88">
<path id="Vector" d="M73.3142 13.2343C72.6407 6.92423 67.6566 1.93964 61.3452 1.26675C45.5179 -0.42225 29.6443 -0.42225 13.8176 1.26675C7.5062 1.94021 2.52156 6.92423 1.84802 13.2343C0.158813 29.0591 0.158813 44.9313 1.84802 60.7561C2.52156 67.0667 7.5062 72.0507 13.817 72.7241C29.6438 74.4131 45.5179 74.4131 61.3452 72.7241C67.6566 72.0507 72.6407 67.0667 73.3142 60.7561C75.0034 44.9313 75.0034 29.0596 73.3142 13.2343Z" fill="url(#paint0_radial_16_623)"/>
<path id="Vector_2" d="M69.2894 15.9142C68.6921 10.3152 64.2692 5.89251 58.6687 5.29473C44.6243 3.79661 30.5381 3.79661 16.4937 5.29473C10.8937 5.89251 6.47027 10.3152 5.87238 15.9142C4.374 29.9561 4.374 44.0398 5.87238 58.0811C6.47027 63.6807 10.8937 68.1034 16.4937 68.7006C30.5381 70.1993 44.6243 70.1993 58.6681 68.7006C64.2687 68.1034 68.6921 63.6807 69.2894 58.0811C70.7884 44.0398 70.7884 29.9561 69.2894 15.9142Z" fill="url(#paint1_linear_16_623)"/>
<path id="Vector_3" d="M1.68903 59.22C1.73984 59.7315 1.79234 60.2431 1.84711 60.7547C2.52065 67.0664 7.50528 72.0518 13.8167 72.7254C29.6434 74.4149 45.5176 74.4149 61.3443 72.7254C67.6557 72.0518 72.6398 67.0664 73.3133 60.7547C73.3681 60.2431 73.4206 59.7315 73.4719 59.22H1.68903Z" fill="url(#paint2_linear_16_623)"/>
<path id="Vector_4" d="M73.3149 60.766C74.2228 52.2632 74.6417 43.7468 74.5739 35.2316L57.6593 18.3197C55.5461 15.9076 52.4595 14.4022 48.8327 14.2718C41.3741 14.0031 33.8918 14.0166 26.432 14.2729C20.2364 14.4863 15.9038 18.6499 14.7927 24.7695C14.5968 25.8499 14.4794 26.9444 14.3253 28.0328V45.9732C14.4105 46.5546 14.5358 47.1332 14.5748 47.718C14.8232 51.4402 16.3532 54.6284 18.8029 56.7853L36.0157 73.9947C44.4629 74.054 52.9106 73.634 61.3459 72.7336C67.6573 72.0602 72.6414 67.0764 73.3149 60.766Z" fill="url(#paint3_linear_16_623)"/>
<path id="Vector_5" d="M73.3132 60.7571C72.6402 67.0672 67.6544 72.0529 61.3442 72.7259C52.91 73.6258 44.4606 74.0464 36.0145 73.9871L18.8277 56.8006C20.8201 58.5445 23.4171 59.6065 26.4308 59.72C33.8889 60 41.3729 59.9926 48.8309 59.7239C55.5765 59.48 60.4578 54.4876 60.6684 47.7421C60.8931 40.58 60.8931 33.3993 60.6684 26.2372C60.5724 23.1253 59.48 20.3871 57.6688 18.3152L74.5728 35.2189C74.6394 43.7342 74.2205 52.253 73.3132 60.7571Z" fill="url(#paint4_linear_16_623)"/>
<path id="Vector_6" d="M46.3145 28.989C44.1476 26.6298 41.0385 25.1497 37.5827 25.1497C31.037 25.1497 25.73 30.4562 25.73 37.0012C25.73 40.4567 27.2104 43.5655 29.5697 45.7321L56.9928 73.1527C58.4444 73.0262 59.8959 72.8857 61.3463 72.731C67.6577 72.0575 72.6423 67.0733 73.3158 60.7625C73.4705 59.3123 73.6111 57.8609 73.7376 56.4095L46.3145 28.989Z" fill="url(#paint5_linear_16_623)"/>
<path id="Vector_7" d="M74.438 44.9717L52.3676 22.8965C51.8527 22.2205 51.0414 21.7817 50.1263 21.7817C48.5692 21.7817 47.3062 23.0444 47.3062 24.6025C47.3062 25.5179 47.7449 26.3294 48.4207 26.8444L74.0434 52.474C74.2173 49.974 74.3488 47.4729 74.438 44.9717Z" fill="url(#paint6_linear_16_623)"/>
<path id="Vector_8" d="M14.3253 28.0319C14.4794 26.9436 14.5968 25.8491 14.7927 24.7688C15.9032 18.6496 20.2364 14.4863 26.432 14.2729C33.8918 14.0166 41.3741 14.0031 48.8327 14.2718C55.576 14.5145 60.4595 19.5064 60.6701 26.2505C60.8943 33.4116 60.8943 40.5902 60.6701 47.7514C60.4595 54.4954 55.5777 59.4868 48.8332 59.7301C41.3746 59.9993 33.8906 60.0061 26.4326 59.7261C19.6882 59.4727 15.0259 54.4694 14.5748 47.7152C14.5358 47.131 14.4105 46.5519 14.3253 45.9705C14.3253 39.9908 14.3253 34.011 14.3253 28.0319ZM37.588 55.7332C41.0015 55.7332 44.4183 55.8354 47.8272 55.7095C53.172 55.5114 56.4595 52.3223 56.5843 46.9837C56.739 40.3317 56.739 33.6707 56.5843 27.0181C56.4595 21.6807 53.1697 18.4171 47.8272 18.3036C41.0461 18.1602 34.2576 18.1614 27.4765 18.3036C22.1746 18.4148 18.8774 21.6124 18.7335 26.8911C18.5505 33.6272 18.5505 40.3752 18.7335 47.1113C18.8774 52.3894 22.1746 55.5131 27.477 55.7095C30.843 55.8348 34.2175 55.7332 37.588 55.7332Z" fill="url(#paint7_linear_16_623)"/>
<g id="Group">
<path id="Vector_9" d="M14.3253 28.0319C14.4794 26.9436 14.5968 25.8491 14.7927 24.7688C15.9032 18.6496 20.2364 14.4863 26.432 14.2729C33.8918 14.0166 41.3741 14.0031 48.8327 14.2718C55.576 14.5145 60.4595 19.5064 60.6701 26.2505C60.8943 33.4116 60.8943 40.5902 60.6701 47.7514C60.4595 54.4954 55.5777 59.4868 48.8332 59.7301C41.3746 59.9993 33.8906 60.0061 26.4326 59.7261C19.6882 59.4727 15.0259 54.4694 14.5748 47.7152C14.5358 47.131 14.4105 46.5519 14.3253 45.9705C14.3253 39.9908 14.3253 34.011 14.3253 28.0319ZM37.588 55.7332C41.0015 55.7332 44.4183 55.8354 47.8272 55.7095C53.172 55.5114 56.4595 52.3223 56.5843 46.9837C56.739 40.3317 56.739 33.6707 56.5843 27.0181C56.4595 21.6807 53.1697 18.4171 47.8272 18.3036C41.0461 18.1602 34.2576 18.1614 27.4765 18.3036C22.1746 18.4148 18.8774 21.6124 18.7335 26.8911C18.5505 33.6272 18.5505 40.3752 18.7335 47.1113C18.8774 52.3894 22.1746 55.5131 27.477 55.7095C30.843 55.8348 34.2175 55.7332 37.588 55.7332Z" fill="white"/>
<path id="Vector_10" d="M37.5827 25.1443C31.037 25.1443 25.73 30.451 25.73 36.9971C25.73 43.5437 31.037 48.8504 37.5827 48.8504C44.129 48.8504 49.4354 43.5437 49.4354 36.9971C49.4354 30.451 44.129 25.1443 37.5827 25.1443ZM37.5827 44.7694C33.2903 44.7694 29.8108 41.2898 29.8108 36.9971C29.8108 32.7044 33.2903 29.2247 37.5827 29.2247C41.8752 29.2247 45.3547 32.7044 45.3547 36.9971C45.3547 41.2898 41.8752 44.7694 37.5827 44.7694Z" fill="white"/>
<path id="Vector_11" d="M52.9458 24.6055C52.9458 26.1613 51.6834 27.4226 50.1263 27.4226C48.5692 27.4226 47.3062 26.1613 47.3062 24.6055C47.3062 23.0492 48.5692 21.7878 50.1263 21.7878C51.6834 21.7878 52.9458 23.0492 52.9458 24.6055Z" fill="white"/>
</g>
</g>
<defs>
<radialGradient id="paint0_radial_16_623" cx="0" cy="0" r="1" gradientUnits="userSpaceOnUse" gradientTransform="translate(15.7507 64.6622) scale(81.609 81.5989)">
<stop stop-color="#FAE100"/>
<stop offset="0.0544" stop-color="#FADC04"/>
<stop offset="0.1167" stop-color="#FBCE0E"/>
<stop offset="0.1829" stop-color="#FCB720"/>
<stop offset="0.2514" stop-color="#FE9838"/>
<stop offset="0.3054" stop-color="#FF7950"/>
<stop offset="0.4922" stop-color="#FF1C74"/>
<stop offset="1" stop-color="#6C1CD1"/>
</radialGradient>
<linearGradient id="paint1_linear_16_623" x1="28.9632" y1="32.1512" x2="-96.391" y2="-38.373" gradientUnits="userSpaceOnUse">
<stop stop-color="#A1B5D8" stop-opacity="0"/>
<stop offset="0.3094" stop-color="#90A2BD" stop-opacity="0.309804"/>
<stop offset="0.7554" stop-color="#7C8B9C" stop-opacity="0.756863"/>
<stop offset="1" stop-color="#748290"/>
</linearGradient>
<linearGradient id="paint2_linear_16_623" x1="37.5802" y1="65.3145" x2="37.5802" y2="76.8509" gradientUnits="userSpaceOnUse">
<stop stop-color="#FAE100" stop-opacity="0"/>
<stop offset="0.3068" stop-color="#FCA800" stop-opacity="0.305882"/>
<stop offset="0.6275" stop-color="#FE7300" stop-opacity="0.627451"/>
<stop offset="0.8685" stop-color="#FF5200" stop-opacity="0.866667"/>
<stop offset="1" stop-color="#FF4500"/>
</linearGradient>
<linearGradient id="paint3_linear_16_623" x1="33.372" y1="32.6925" x2="15.0611" y2="14.3787" gradientUnits="userSpaceOnUse">
<stop stop-color="#833AB4" stop-opacity="0"/>
<stop offset="1" stop-color="#833AB4"/>
</linearGradient>
<linearGradient id="paint4_linear_16_623" x1="51.296" y1="67.675" x2="42.1556" y2="24.5836" gradientUnits="userSpaceOnUse">
<stop stop-color="#833AB4" stop-opacity="0"/>
<stop offset="1" stop-color="#833AB4"/>
</linearGradient>
<linearGradient id="paint5_linear_16_623" x1="54.7769" y1="54.1938" x2="18.0659" y2="17.4794" gradientUnits="userSpaceOnUse">
<stop stop-color="#833AB4" stop-opacity="0"/>
<stop offset="1" stop-color="#833AB4"/>
</linearGradient>
<linearGradient id="paint6_linear_16_623" x1="57.4988" y1="31.9767" x2="45.355" y2="19.836" gradientUnits="userSpaceOnUse">
<stop stop-color="#833AB4" stop-opacity="0"/>
<stop offset="1" stop-color="#833AB4"/>
</linearGradient>
<linearGradient id="paint7_linear_16_623" x1="52.2746" y1="22.4177" x2="22.3467" y2="52.3524" gradientUnits="userSpaceOnUse">
<stop stop-color="#833AB4"/>
<stop offset="0.0922" stop-color="#9C3495"/>
<stop offset="0.2927" stop-color="#DC2546"/>
<stop offset="0.392" stop-color="#FD1D1D"/>
<stop offset="0.5589" stop-color="#FC6831"/>
<stop offset="0.6887" stop-color="#FC9B40"/>
<stop offset="0.7521" stop-color="#FCAF45"/>
<stop offset="0.7806" stop-color="#FDB750"/>
<stop offset="0.8656" stop-color="#FECB6A"/>
<stop offset="0.9415" stop-color="#FFD87A"/>
<stop offset="1" stop-color="#FFDC80"/>
</linearGradient>
</defs>
</svg>
