<svg width="75" height="74" viewBox="0 0 75 74" fill="none" xmlns="http://www.w3.org/2000/svg">
<g id="Group 171">
<path id="Vector" d="M60.9248 72.7314C45.0981 74.4205 29.2234 74.4205 13.3967 72.7314C7.08584 72.0578 2.10121 67.0733 1.42767 60.7621C-0.261535 44.9357 -0.261535 29.0619 1.42767 13.2356C2.10121 6.92491 7.08584 1.9404 13.3967 1.26688C29.2234 -0.422292 45.0975 -0.422292 60.9243 1.26688C67.2356 1.9404 72.2203 6.92491 72.8938 13.2356C74.583 29.0619 74.583 44.9357 72.8938 60.7621C72.2203 67.0733 67.2362 72.0578 60.9248 72.7314Z" fill="url(#paint0_linear_16_639)"/>
<path id="Vector_2" d="M68.8695 15.9211C68.2722 10.3216 63.8493 5.89852 58.2488 5.30069C44.2044 3.80244 30.1182 3.80244 16.0739 5.30069C10.4739 5.89852 6.05041 10.3216 5.45252 15.9211C3.95414 29.9641 3.95414 44.049 5.45252 58.0915C6.05041 63.6916 10.4739 68.1146 16.0739 68.7119C30.1182 70.2107 44.2044 70.2107 58.2482 68.7119C63.8488 68.1146 68.2722 63.6916 68.8695 58.0915C70.3685 44.049 70.3685 29.9641 68.8695 15.9211Z" fill="url(#paint1_linear_16_639)"/>
<path id="Vector_3" d="M1.26965 59.2346C1.32047 59.7459 1.37297 60.2573 1.42773 60.7686C2.10127 67.0772 7.0859 72.0602 13.3973 72.7335C29.224 74.4221 45.0982 74.4221 60.9249 72.7335C67.2363 72.0602 72.2203 67.0772 72.8939 60.7686C72.9486 60.2573 73.0011 59.7459 73.0525 59.2346H1.26965Z" fill="url(#paint2_linear_16_639)"/>
<path id="Vector_4" d="M74.146 34.4048L58.7856 19.0471C57.0642 20.031 55.5472 20.5768 54.4045 20.8794C53.762 21.0516 53.2375 21.1453 52.8604 21.1967C51.1283 19.4213 48.7096 18.3188 46.0324 18.3188C40.7649 18.3188 36.4939 22.5887 36.4939 27.8566C36.4939 28.0469 36.499 28.2349 36.5114 28.4223C36.5368 28.8789 36.595 29.3277 36.6848 29.7641C34.4857 29.7313 27.3382 29.1443 20.5215 23.3017C20.521 23.3017 20.521 23.3011 20.521 23.3011H20.5204L17.3057 20.0863C17.3057 20.0863 13.5344 26.6678 19.0791 31.6619C19.3224 31.9335 19.59 32.2016 19.883 32.4652C19.9062 32.4912 19.9304 32.5166 19.9536 32.5426C19.2258 32.4934 17.037 32.2755 15.7701 31.3808C15.7701 31.3808 15.5155 35.4034 18.8673 38.3648L21.5739 41.0942C20.7496 41.1625 19.8378 41.1461 19.2038 40.8684C19.2038 40.8684 19.765 43.2511 21.9341 45.158L25.7258 48.9689C23.4511 50.2938 19.4692 51.9518 14.2277 51.5284L37.229 74C45.1319 73.9977 53.0349 73.5755 60.9259 72.7332C67.2373 72.0598 72.2219 67.0758 72.8955 60.7659C73.8321 51.9879 74.2482 43.1952 74.146 34.4048Z" fill="url(#paint3_linear_16_639)"/>
<path id="Vector_5" d="M60.0951 22.7513C58.4579 23.6076 55.9918 24.0033 55.1743 24.1173C55.1675 24.0778 55.1608 24.04 55.154 24.0022C57.9334 22.2833 58.7842 19.047 58.7842 19.047C57.0628 20.031 55.5458 20.5768 54.4031 20.8794C53.7606 21.0516 53.2361 21.1447 52.859 21.1966C51.1269 19.4207 48.7082 18.3188 46.031 18.3188C40.7635 18.3188 36.4925 22.5881 36.4925 27.8566C36.4925 28.0462 36.4976 28.2348 36.51 28.4216C36.5354 28.8783 36.5936 29.3271 36.6834 29.7634C34.1337 29.7256 24.9306 28.9438 17.3043 20.0863C17.3043 20.0863 13.0576 27.4947 20.1972 32.5554C20.1972 32.5554 17.3043 32.4651 15.7687 31.3807C15.7687 31.3807 15.317 38.5193 23.5401 40.7773C23.5401 40.7773 20.6489 41.501 19.2019 40.8682C19.2019 40.8682 20.6483 47.0121 27.8777 47.4649C27.8777 47.4649 22.6926 52.2111 14.2257 51.5281C18.39 54.1643 23.3272 55.6901 28.6207 55.6901C43.5046 55.6901 55.5706 43.6263 55.5706 28.7445C55.5706 28.5588 55.569 28.3731 55.565 28.1874C55.569 28.0773 55.5706 27.9678 55.5706 27.8566C55.5706 27.7792 55.569 27.7019 55.5678 27.6246C58.3196 25.7911 60.0951 22.7513 60.0951 22.7513Z" fill="white"/>
</g>
<defs>
<linearGradient id="paint0_linear_16_639" x1="24.7302" y1="10.404" x2="43.4462" y2="50.4485" gradientUnits="userSpaceOnUse">
<stop stop-color="#00C3FF"/>
<stop offset="1" stop-color="#00B0ED"/>
</linearGradient>
<linearGradient id="paint1_linear_16_639" x1="52.8115" y1="45.4011" x2="-54.6963" y2="-12.2754" gradientUnits="userSpaceOnUse">
<stop stop-color="#00B0ED" stop-opacity="0"/>
<stop offset="1" stop-color="#00A2CE"/>
</linearGradient>
<linearGradient id="paint2_linear_16_639" x1="37.1608" y1="63.2192" x2="37.1608" y2="72.9123" gradientUnits="userSpaceOnUse">
<stop stop-color="#00B0ED" stop-opacity="0"/>
<stop offset="1" stop-color="#00A2CE"/>
</linearGradient>
<linearGradient id="paint3_linear_16_639" x1="70.8984" y1="69.6751" x2="34.7521" y2="33.5239" gradientUnits="userSpaceOnUse">
<stop stop-color="#00B0ED" stop-opacity="0"/>
<stop offset="1" stop-color="#00A2CE"/>
</linearGradient>
</defs>
</svg>
